<svg width="261" height="259" viewBox="0 0 261 259" fill="none" xmlns="http://www.w3.org/2000/svg">
<path d="M129.753 52.6027C145.012 52.6027 159.929 57.1277 172.616 65.6051C185.303 74.0823 195.192 86.1318 201.031 100.229C206.871 114.327 208.398 129.839 205.422 144.805C202.445 159.771 195.097 173.517 184.307 184.307C173.517 195.097 159.771 202.445 144.805 205.422C129.839 208.399 114.327 206.871 100.229 201.031C86.1317 195.192 74.0826 185.303 65.6051 172.616C57.1277 159.929 52.6027 145.012 52.6027 129.753C52.6287 109.3 60.7654 89.6914 75.2284 75.2284C89.6914 60.7655 109.3 52.6287 129.753 52.6027ZM128 0C102.684 0 77.9366 7.50706 56.8872 21.5719C35.8374 35.6366 19.4315 55.6276 9.74347 79.0164C0.05546 102.405 -2.47937 128.142 2.45954 152.972C7.39846 177.801 19.5893 200.608 37.4903 218.51C55.3916 236.411 78.1989 248.602 103.029 253.54C127.858 258.479 153.595 255.944 176.984 246.257C200.372 236.568 220.363 220.163 234.428 199.113C248.493 178.063 256 153.316 256 128C256 94.0524 242.514 61.4949 218.51 37.4903C194.505 13.4857 161.948 0 128 0Z" fill="url(#paint0_linear_755_1964)"/>
<path d="M173.145 58.102L173.179 58.0673C170.582 56.1612 170.668 54.4284 171.923 53.2328C173.024 52.1758 175.175 51.5173 175.175 51.5173C208.891 43.7716 236.089 61.2037 236.089 61.2037C207.859 23.9482 154.446 14.1752 103.285 40.2713C69.7749 56.6984 57.4923 82.0148 57.4923 82.0148L57.5955 81.9975C49.8372 94.5431 45.2957 109.307 45.2957 125.145C45.2957 152.904 59.0405 177.389 80.0104 192.204L79.9759 192.239C82.5735 194.128 82.4875 195.878 81.2317 197.074C80.1308 198.131 77.9805 198.789 77.9805 198.789C44.2464 206.535 17.0664 189.103 17.0664 189.103C45.2957 226.376 98.7095 236.131 149.87 210.035C183.38 193.608 195.68 168.274 195.68 168.274L195.56 168.292C203.318 155.746 207.859 140.982 207.859 125.127C207.859 97.3849 194.115 72.9002 173.145 58.102ZM94.1622 126.028C94.1622 107.55 109.074 92.5577 127.454 92.5577C145.833 92.5577 160.745 107.55 160.745 126.028C160.745 144.523 145.833 159.515 127.454 159.515C109.057 159.515 94.1622 144.541 94.1622 126.028Z" fill="white"/>
<path fill-rule="evenodd" clip-rule="evenodd" d="M217.5 255C239.315 255 257 237.315 257 215.5C257 193.685 239.315 176 217.5 176C195.685 176 178 193.685 178 215.5C178 227.598 183.439 238.426 192.005 245.672C192.583 246.16 193.174 246.632 193.779 247.087C200.384 252.055 208.598 255 217.5 255Z" fill="white" stroke="url(#paint1_linear_755_1964)" stroke-width="7"/>
<path d="M195.842 211.717L203.154 215.221L203.846 213.779L196.028 210.031C197.455 200.837 205.406 193.8 215 193.8C225.604 193.8 234.2 202.396 234.2 213C234.2 223.604 225.604 232.2 215 232.2C206.668 232.2 199.575 226.893 196.918 219.473L206.166 223.727L206.834 222.273L196.314 217.434C195.978 216.012 195.8 214.527 195.8 213C195.8 212.569 195.814 212.141 195.842 211.717Z" fill="#E82574" stroke="black" stroke-width="1.6"/>
<path d="M234 226C234 227.973 230.355 234.15 222.5 234.757C220.462 234.915 218.275 235 216 235C204.954 235 196 232.985 196 230.5C196 228.015 204.954 226 216 226C227.046 226 234 223.515 234 226Z" fill="black"/>
<circle cx="221" cy="215" r="19.2" fill="white" stroke="black" stroke-width="1.6"/>
<path d="M209.76 219L211.304 213.226H211.365L212.903 219H214.423L216.626 210.669H214.875L213.587 216.614H213.52L212.049 210.669H210.62L209.143 216.614H209.082L207.788 210.669H206.037L208.24 219H209.76ZM222.669 217.651H218.94V215.417H222.443V214.154H218.94V212.018H222.669V210.669H217.304V219H222.669V217.651ZM227.161 219V212.048H229.53V210.669H223.145V212.048H225.513V219H227.161ZM237.055 219V210.669H235.401V214.056H231.904V210.669H230.256V219H231.904V215.429H235.401V219H237.055Z" fill="black"/>
<path d="M128.5 166C150.315 166 168 147.868 168 125.5C168 103.132 150.315 85 128.5 85C106.685 85 89 103.132 89 125.5C89 147.868 106.685 166 128.5 166Z" fill="white"/>
<path d="M126.5 185C159.913 185 187 157.913 187 124.5C187 91.0868 159.913 64 126.5 64C93.0868 64 66 91.0868 66 124.5C66 157.913 93.0868 185 126.5 185Z" fill="#8247E5"/>
<path d="M145.214 112.255C143.905 111.507 142.223 111.507 140.727 112.255L130.258 118.424L123.154 122.35L112.872 128.519C111.564 129.267 109.881 129.267 108.386 128.519L100.347 123.659C99.0386 122.911 98.1039 121.415 98.1039 119.733V110.386C98.1039 108.89 98.8516 107.395 100.347 106.46L108.386 101.786C109.694 101.039 111.377 101.039 112.872 101.786L120.911 106.647C122.22 107.395 123.154 108.89 123.154 110.573V116.742L130.258 112.629V106.273C130.258 104.777 129.51 103.282 128.015 102.347L113.059 93.5608C111.751 92.8131 110.068 92.8131 108.573 93.5608L93.2433 102.534C91.7478 103.282 91 104.777 91 106.273V123.846C91 125.341 91.7478 126.837 93.2433 127.772L108.386 136.558C109.694 137.306 111.377 137.306 112.872 136.558L123.154 130.576L130.258 126.463L140.54 120.481C141.849 119.733 143.531 119.733 145.027 120.481L153.065 125.154C154.374 125.902 155.309 127.398 155.309 129.08V138.427C155.309 139.923 154.561 141.418 153.065 142.353L145.214 147.027C143.905 147.774 142.223 147.774 140.727 147.027L132.688 142.353C131.38 141.605 130.445 140.11 130.445 138.427V132.445L123.341 136.558V142.727C123.341 144.223 124.089 145.718 125.585 146.653L140.727 155.439C142.036 156.187 143.718 156.187 145.214 155.439L160.356 146.653C161.665 145.905 162.599 144.409 162.599 142.727V124.967C162.599 123.472 161.852 121.976 160.356 121.042L145.214 112.255Z" fill="white"/>
<defs>
<linearGradient id="paint0_linear_755_1964" x1="206.584" y1="206.584" x2="34.56" y2="34.56" gradientUnits="userSpaceOnUse">
<stop offset="0.000791807" stop-color="#0B50B0"/>
<stop offset="0.462706" stop-color="#0F6BEB"/>
<stop offset="1" stop-color="#6FA4F2"/>
</linearGradient>
<linearGradient id="paint1_linear_755_1964" x1="217.5" y1="176" x2="217.5" y2="255" gradientUnits="userSpaceOnUse">
<stop stop-color="#6FA4F2"/>
<stop offset="0.524256" stop-color="#0F6BEB"/>
<stop offset="1" stop-color="#0B50B0"/>
</linearGradient>
</defs>
</svg>
